<svg width="584" height="500" fill="none" xmlns="http://www.w3.org/2000/svg"><g clip-path="url(#clip0_1699_13121)"><path opacity=".25" d="M454.131 229.306l-58.677 30.282c-17.035 8.517-28.391 23.657-29.338 40.691l-4.732 58.67c-2.839 42.584-61.515 63.402-98.424 35.013l-51.105-38.798c-15.143-11.356-35.017-15.141-53.945-11.356l-66.247 15.141c-47.32 10.41-88.96-31.228-69.087-70.026l26.5-53.939c8.517-15.141 6.624-33.12-3.786-47.315L8.38 137.515c-26.498-35.959 6.625-82.328 55.838-78.542l68.14 5.677c18.928 1.893 37.855-5.677 50.158-17.98L226.05 1.249c31.231-32.174 92.747-19.872 104.103 21.765l15.143 56.778c3.785 17.034 17.981 30.282 35.963 36.906l63.408 20.818c46.373 16.087 52.051 70.026 9.464 91.791z" fill="#63E6BE"/><path d="M108 235h304c8.837 0 16 7.163 16 16v225c0 8.837-7.163 16-16 16H108c-8.837 0-16-7.163-16-16V251c0-8.837 7.163-16 16-16z" fill="#001D40" stroke="#C2C7D1" stroke-width="16"/><path d="M310 468h126v16c0 8.837-7.163 16-16 16H310v-32z" fill="#8991A6"/><path d="M345 476a8 8 0 0 0-8-8H8a8 8 0 0 0-8 8v8c0 8.837 7.163 16 16 16h313c8.837 0 16-7.163 16-16v-8z" fill="#C2C7D1"/><path opacity=".25" d="M104 251a4 4 0 0 1 4-4h200L104 438V251z" fill="url(#paint0_linear_1699_13121)"/><g style="mix-blend-mode:screen" clip-path="url(#clip1_1699_13121)"><path d="M135 275h248a7 7 0 0 1 7 7v23H128v-23a7 7 0 0 1 7-7z" fill="#515F7C" stroke="#515F7C" stroke-width="2"/><path d="M202 359c4.375 0 8-3.562 8-8 0-4.375-3.625-8-8-8-4.438 0-8 3.625-8 8 0 4.438 3.562 8 8 8zm3.125 3h-6.313c-6 0-10.812 4.875-10.812 10.875 0 1.187.938 2.125 2.125 2.125h23.687c1.188 0 2.188-.938 2.188-2.125 0-6-4.875-10.875-10.875-10.875zM336.938 423h-24c-2.188 0-4 1.812-4 4v20c0 2.25 1.812 4 4 4h24c2.187 0 4-1.75 4-4v-20c0-2.188-1.75-4-4-4zm-21 4c1.624 0 3 1.375 3 3 0 1.688-1.313 3-3 3-1.75 0-3-1.312-3-3 0-1.625 1.374-3 3-3zm20.937 19.5c-.187.312-.563.5-.875.5h-21.875c-.437 0-.75-.188-.937-.5-.126-.375-.126-.75.124-1.062l4.376-6c.187-.25.437-.438.812-.438.312 0 .562.188.75.438l2.062 2.812 5.813-8.75c.187-.312.5-.5.875-.5.312 0 .625.188.812.5l8 12c.188.25.188.688.063 1z" fill="#C2C7D1"/><circle cx="148" cy="291" r="5" fill="#001D40"/><circle cx="168" cy="291" r="5" fill="#001D40"/><circle cx="188" cy="291" r="5" fill="#001D40"/><path fill-rule="evenodd" clip-rule="evenodd" d="M286 330a1 1 0 0 1 1-1h76a1 1 0 0 1 0 2h-76a1 1 0 0 1-1-1zM165 421a1 1 0 0 1 1-1h76a1 1 0 0 1 0 2h-76a1 1 0 0 1-1-1zM286 378a1 1 0 0 1 1-1h76a1 1 0 0 1 0 2h-76a1 1 0 0 1-1-1zM286 346a1 1 0 0 1 1-1h76a1 1 0 0 1 0 2h-76a1 1 0 0 1-1-1zM165 437a1 1 0 0 1 1-1h76a1 1 0 0 1 0 2h-76a1 1 0 0 1-1-1zM286 362a1 1 0 0 1 1-1h76a1 1 0 0 1 0 2h-76a1 1 0 0 1-1-1zM165 453a1 1 0 0 1 1-1h76a1 1 0 0 1 0 2h-76a1 1 0 0 1-1-1z" fill="#515F7C"/><path fill-rule="evenodd" clip-rule="evenodd" d="M383 276H135a6 6 0 0 0-6 6v192a6 6 0 0 0 6 6h248a6 6 0 0 0 6-6V282a6 6 0 0 0-6-6zm-248-2a8 8 0 0 0-8 8v192a8 8 0 0 0 8 8h248a8 8 0 0 0 8-8V282a8 8 0 0 0-8-8H135z" fill="#515F7C"/><path fill-rule="evenodd" clip-rule="evenodd" d="M253 322h-99a6 6 0 0 0-6 6v62a6 6 0 0 0 6 6h99a6 6 0 0 0 6-6v-62a6 6 0 0 0-6-6zm-99-2a8 8 0 0 0-8 8v62a8 8 0 0 0 8 8h99a8 8 0 0 0 8-8v-62a8 8 0 0 0-8-8h-99zM365 400h-80a6 6 0 0 0-6 6v62a6 6 0 0 0 6 6h80a6 6 0 0 0 6-6v-62a6 6 0 0 0-6-6zm-80-2a8 8 0 0 0-8 8v62a8 8 0 0 0 8 8h80a8 8 0 0 0 8-8v-62a8 8 0 0 0-8-8h-80z" fill="#515F7C"/></g><path d="M447 398c0-6.627 5.373-12 12-12h82c6.627 0 12 5.373 12 12v78c0 13.255-10.745 24-24 24h-58c-13.255 0-24-10.745-24-24v-78z" fill="#0CA678"/><g opacity=".3" filter="url(#filter0_i_1699_13121)"><path d="M514 500h15c13.255 0 24-10.745 24-24v-78c0-6.627-5.373-12-12-12h-15c6.627 0 12 5.373 12 12v78c0 13.255-10.745 24-24 24z" fill="#193154"/></g><path d="M548 476h1c18.778 0 34-15.222 34-34v-10c0-18.778-15.222-34-34-34h-1v20h1c7.732 0 14 6.268 14 14v10c0 7.732-6.268 14-14 14h-1v20z" fill="#0E8069"/><path opacity=".5" fill-rule="evenodd" clip-rule="evenodd" d="M447 462.325c6.105 8.559 16.121 14.113 27.5 14.113 18.589 0 33.75-15.03 33.75-33.75 0-18.589-15.161-33.75-33.75-33.75-11.379 0-21.395 5.601-27.5 14.17v39.217zm12.339-10.673c.923-.659 2.241-.659 3.032.264 2.373 2.769 6.328 5.537 11.997 5.537 5.801 0 9.756-2.768 12.129-5.537.791-.923 2.109-.923 3.032-.264.923.791.923 2.11.264 3.033-3.032 3.427-8.042 6.987-15.425 6.987-7.251 0-12.261-3.56-15.293-6.987-.659-.923-.659-2.242.264-3.033zm.395-15.293c0-2.241 1.846-4.218 4.219-4.218s4.219 1.977 4.219 4.218c0 2.373-1.846 4.219-4.219 4.219s-4.219-1.846-4.219-4.219zm29.532 0c0 2.373-1.846 4.219-4.219 4.219s-4.219-1.846-4.219-4.219c0-2.241 1.846-4.218 4.219-4.218s4.219 1.977 4.219 4.218z" fill="#63E6BE"/><g opacity=".75"><path d="M490.472 289.174L500.779 260l-20.252 23.678c-8.587 10.04-7.445 25.132 2.555 33.765l8.077 6.974a24.001 24.001 0 0 1 8.155 20.931L496.106 373l10.158-27.469a24 24 0 0 0-3.854-23.422l-7.965-9.842a24 24 0 0 1-3.973-23.093z" fill="#fff"/><path d="M512.909 247.159L504.58 208l20.487 31.551a24 24 0 0 1-.642 27.078l-21.812 30.345c-.662.922-2.105.201-1.766-.882l11.495-36.781a23.992 23.992 0 0 0 .567-12.152z" fill="#fff"/><path d="M490.472 289.174L500.779 260l-20.252 23.678c-8.587 10.04-7.445 25.132 2.555 33.765l8.077 6.974a24.001 24.001 0 0 1 8.155 20.931L496.106 373l10.158-27.469a24 24 0 0 0-3.854-23.422l-7.965-9.842a24 24 0 0 1-3.973-23.093z" stroke="#fff" stroke-width="5" stroke-linecap="round" stroke-linejoin="round"/><path d="M512.909 247.159L504.58 208l20.487 31.551a24 24 0 0 1-.642 27.078l-21.812 30.345c-.662.922-2.105.201-1.766-.882l11.495-36.781a23.992 23.992 0 0 0 .567-12.152z" stroke="#fff" stroke-width="5" stroke-linecap="round" stroke-linejoin="round"/></g><path fill-rule="evenodd" clip-rule="evenodd" d="M511.75 380.75a3 3 0 0 1 3 3v24a3 3 0 1 1-6 0v-24a3 3 0 0 1 3-3z" fill="#63E6BE"/><path d="M495.75 415.713c0-2.268.963-4.429 2.648-5.946l10.676-9.609a4 4 0 0 1 5.352 0l10.676 9.609a8.001 8.001 0 0 1 2.648 5.946v22.037a8 8 0 0 1-8 8h-16a8 8 0 0 1-8-8v-22.037z" fill="#fff"/></g><defs><filter id="filter0_i_1699_13121" x="514" y="386" width="39" height="114" filterUnits="userSpaceOnUse" color-interpolation-filters="sRGB"><feFlood flood-opacity="0" result="BackgroundImageFix"/><feBlend in="SourceGraphic" in2="BackgroundImageFix" result="shape"/><feColorMatrix in="SourceAlpha" values="0 0 0 0 0 0 0 0 0 0 0 0 0 0 0 0 0 0 127 0" result="hardAlpha"/><feOffset dx="-16"/><feComposite in2="hardAlpha" operator="arithmetic" k2="-1" k3="1"/><feColorMatrix values="0 0 0 0 0.0980392 0 0 0 0 0.192157 0 0 0 0 0.329412 0 0 0 0.25 0"/><feBlend mode="multiply" in2="shape" result="effect1_innerShadow_1699_13121"/></filter><linearGradient id="paint0_linear_1699_13121" x1="162" y1="247" x2="213" y2="368" gradientUnits="userSpaceOnUse"><stop stop-color="#fff"/><stop offset="1" stop-color="#fff" stop-opacity="0"/></linearGradient><clipPath id="clip0_1699_13121"><path fill="#fff" d="M0 0h584v500H0z"/></clipPath><clipPath id="clip1_1699_13121"><path fill="#fff" transform="translate(127 274)" d="M0 0h264v194H0z"/></clipPath></defs></svg>