<svg width="484" height="456" fill="none" xmlns="http://www.w3.org/2000/svg"><g clip-path="url(#clip0_1444_11934)"><path opacity=".25" d="M455.131 118.271l-58.677 30.031c-17.035 8.446-28.391 23.462-29.338 40.355l-4.732 58.185c-2.839 42.232-61.515 62.878-98.424 34.724l-51.105-38.478c-15.143-11.261-35.017-15.015-53.945-11.261l-66.247 15.015c-47.32 10.323-88.96-30.97-69.087-69.447l26.5-53.493c8.517-15.016 6.624-32.847-3.786-46.924L9.38 27.238c-26.498-35.662 6.625-81.647 55.838-77.893l68.14 5.63c18.928 1.877 37.855-5.63 50.158-17.83l43.534-45.047c31.231-31.909 92.747-19.708 104.103 21.585l15.143 56.308c3.785 16.893 17.981 30.032 35.963 36.6l63.408 20.647c46.373 15.955 52.051 69.448 9.464 91.033z" fill="#FAB005"/><ellipse cx="27" cy="26.777" rx="27" ry="26.777" transform="matrix(-1 0 0 1 344.151 308.132)" fill="#FFD43B"/><ellipse cx="236" cy="10.859" rx="22" ry="21.818" fill="#FFD43B"/><ellipse cx="110" cy="44.578" rx="22" ry="21.818" fill="#6741D9"/><ellipse cx="185" cy="434.331" rx="22" ry="21.818" fill="#9C36B5"/><ellipse cx="102" cy="335.157" rx="16" ry="15.868" fill="#E599F7"/><ellipse cx="368" cy="425.405" rx="8" ry="7.934" fill="#B197FC"/><ellipse cx="150.5" cy="275.157" rx="13.5" ry="13.388" fill="#63E6BE"/><ellipse cx="273" cy="257.802" rx="7" ry="6.942" fill="#0CA678"/><ellipse cx="251" cy="91.19" rx="7" ry="6.942" fill="#9C36B5"/><circle cx="298.5" cy="172.5" r="18.5" fill="#9C36B5"/><ellipse cx="220" cy="330.198" rx="22" ry="21.818" fill="#6741D9"/><ellipse cx="115" cy="244.909" rx="22" ry="21.818" fill="#FFD43B"/><path d="M73.46 159.363c-2.835 14.541-16.99 24.078-31.614 21.302-14.625-2.775-24.183-16.812-21.348-31.353 2.835-14.54 16.99-24.077 31.614-21.301 14.625 2.775 24.183 16.812 21.348 31.352z" fill="#FFD43B"/><ellipse cx="26.889" cy="26.889" rx="26.889" ry="26.889" transform="matrix(.50641 -.86384 .8658 .49773 136.323 105.469)" fill="#63E6BE"/><ellipse cx="26.889" cy="26.889" rx="26.889" ry="26.889" transform="matrix(.65868 -.7542 .75775 .65051 67 378)" fill="#B197FC"/><ellipse cx="360.253" cy="74.083" rx="27" ry="26.777" fill="#FFD43B"/><circle cx="416" cy="216" r="22" fill="#B197FC"/><path d="M342.446 325.558c.928 2.485 1.411 4.985 1.631 7.581l14.692 1.594c.493.116 1.02-.078 1.416-.223.659-.242 1.27-.615 1.651-1.201.43-.456.63-1.124.698-1.744-.112-.703-.224-1.405-.552-1.88-.376-.605-.835-1.031-1.558-1.361l-5.421-2.47 3.336-2.713c.61-.372.942-1.089 1.143-1.758.2-.668.088-1.371-.157-2.024-.244-.654-.62-1.26-1.211-1.638-.591-.377-1.265-.576-1.973-.465l-4.313.097 2.442-5.507c.333-.717.484-1.516.191-2.301-.112-.702-.669-1.39-1.309-1.899-.591-.378-1.397-.528-2.286-.499-.708.112-1.499.402-2.012 1.037l-10.1 10.7c1.67 2.063 2.813 4.32 3.692 6.674zm-62.331 32.264c-.332.717-.401 1.337-.288 2.039.063.572.439 1.177.815 1.783.459.426 1.05.804 1.675.872.674.198 1.383.087 1.91-.107.528-.193 1.055-.387 1.353-.794l10.1-10.7c-1.67-2.063-2.813-4.321-3.873-6.757a35.177 35.177 0 0 1-1.45-7.498l-14.692-1.594c-.757-.019-1.597.141-2.158.644-.743.422-1.256 1.056-1.407 1.856-.2.668-.171 1.55.254 2.286.244.654.933 1.293 1.656 1.623l5.421 2.47-3.336 2.712c-.61.373-.991.959-1.143 1.759-.2.668-.088 1.37.157 2.024.244.654.62 1.26 1.211 1.638.591.377 1.265.576 1.973.465l4.313-.097-2.491 5.376z" fill="#E599F7"/><path d="M23.973 140.417c-1.384 2.267-2.335 4.63-3.045 7.139l-14.73-1.187c-.507.021-.988-.268-1.35-.485-.6-.361-1.13-.842-1.392-1.488-.335-.528-.404-1.222-.353-1.844.244-.668.488-1.337.9-1.742.484-.524 1.016-.856 1.789-1.045l5.794-1.41-2.76-3.288c-.528-.481-.717-1.247-.786-1.941-.07-.694.174-1.363.539-1.959.364-.596.849-1.121 1.5-1.381.653-.26 1.353-.329 2.027-.087l4.217.903-1.35-5.865c-.189-.767-.186-1.58.252-2.296.244-.668.922-1.239 1.647-1.619.652-.26 1.472-.257 2.34-.062.674.242 1.395.676 1.778 1.395l7.88 12.4c-2.033 1.713-3.585 3.715-4.897 5.862zm55.064 43.36c.19.766.139 1.388-.105 2.057-.172.549-.656 1.073-1.14 1.597-.533.333-1.185.593-1.812.543-.7.068-1.374-.174-1.855-.463-.481-.289-.962-.578-1.177-1.033l-7.88-12.4c2.032-1.713 3.585-3.715 5.09-5.909a35.254 35.254 0 0 0 2.852-7.092l14.73 1.187c.748.123 1.542.438 1.998 1.037.649.553 1.031 1.273 1.028 2.086.07.694-.128 1.554-.685 2.197-.364.597-1.163 1.095-1.935 1.284l-5.794 1.41 2.759 3.288c.528.481.79 1.128.787 1.941.07.694-.174 1.363-.539 1.959-.364.596-.849 1.121-1.501 1.381-.652.26-1.352.329-2.026.087l-4.217-.903 1.422 5.746zM152.337 112.681c1.692 2.036 3.62 3.698 5.766 5.181l-6.025 13.412c-.148.482-.582.838-.908 1.106-.543.445-1.175.783-1.876.818-.613.142-1.295-.019-1.868-.27-.554-.446-1.108-.893-1.355-1.411-.337-.625-.476-1.232-.398-2.017l.588-5.888-4.04 1.512c-.632.339-1.423.266-2.105.105-.682-.161-1.236-.608-1.681-1.144-.445-.536-.782-1.161-.812-1.857-.03-.696.137-1.374.591-1.926l2.259-3.656-6.018-.649c-.79-.073-1.561-.341-2.096-.984-.553-.447-.87-1.268-.99-2.071-.03-.696.246-1.463.72-2.212.454-.553 1.105-1.087 1.915-1.211l14.394-3.338c.951 2.463 2.337 4.571 3.939 6.5zm59.479-37.44c.791.073 1.364.324 1.918.77.465.34.801.965 1.138 1.59.139.607.169 1.303-.087 1.873-.167.678-.621 1.23-1.056 1.587-.434.357-.869.713-1.373.766l-14.394 3.338c-.951-2.464-2.336-4.571-3.919-6.696a35.235 35.235 0 0 0-5.785-4.986l6.024-13.412c.365-.66.928-1.301 1.649-1.532.741-.428 1.551-.552 2.322-.283.682.161 1.433.626 1.859 1.358.445.536.653 1.446.575 2.231l-.587 5.888 4.04-1.512c.632-.338 1.334-.373 2.105-.104.682.161 1.235.608 1.68 1.144.446.536.782 1.16.812 1.857.031.696-.137 1.373-.591 1.926l-2.259 3.656 5.929.542z" fill="#63E6BE"/><path d="M81.522 388.002c1.282 2.316 2.867 4.308 4.698 6.166l-8.421 12.053c-.235.445-.728.715-1.098.916-.617.337-1.301.551-1.997.455-.628.025-1.268-.261-1.784-.614-.461-.542-.922-1.085-1.068-1.639-.215-.677-.238-1.299-.014-2.056l1.675-5.675-4.251.732c-.684.214-1.448-.004-2.087-.29-.64-.286-1.101-.828-1.438-1.438-.338-.609-.552-1.286-.452-1.975.1-.69.391-1.324.94-1.783l2.902-3.169-5.792-1.761c-.763-.219-1.47-.626-1.875-1.358-.46-.542-.619-1.408-.586-2.219.1-.69.514-1.392 1.119-2.039.549-.458 1.289-.862 2.108-.833l14.764-.594c.475 2.598 1.443 4.927 2.657 7.121zm65.42-25.686c.763.219 1.279.572 1.74 1.114.393.42.607 1.097.821 1.774.024.622-.076 1.312-.435 1.824-.291.635-.84 1.093-1.333 1.363-.493.269-.987.538-1.492.496l-14.763.594c-.475-2.598-1.443-4.927-2.602-7.31a35.233 35.233 0 0 0-4.753-5.977l8.42-12.053c.482-.58 1.155-1.106 1.906-1.198.808-.282 1.627-.252 2.334.155.64.286 1.291.883 1.573 1.682.337.609.372 1.542.149 2.299l-1.676 5.675 4.252-.732c.684-.214 1.379-.118 2.087.29.64.286 1.1.828 1.438 1.438.337.609.551 1.286.451 1.975-.1.69-.391 1.324-.94 1.783l-2.901 3.169 5.724 1.639z" fill="#B197FC"/><path d="M334.958 64.732c-.928 2.485-1.411 4.984-1.631 7.58l-14.691 1.594c-.494.116-1.021-.077-1.417-.223-.659-.242-1.269-.615-1.65-1.2-.43-.456-.63-1.125-.699-1.745.112-.702.225-1.404.552-1.879.376-.605.835-1.032 1.558-1.361l5.421-2.47-3.335-2.713c-.611-.373-.943-1.09-1.143-1.758-.201-.669-.088-1.371.156-2.025.244-.654.62-1.26 1.211-1.637.591-.378 1.265-.577 1.973-.465l4.313.097-2.442-5.508c-.332-.716-.484-1.516-.191-2.3.113-.703.67-1.39 1.309-1.9.591-.377 1.397-.527 2.286-.498.708.111 1.5.402 2.012 1.037l10.101 10.7c-1.671 2.063-2.813 4.32-3.693 6.674zm62.332 32.264c.332.717.4 1.337.288 2.039-.064.572-.44 1.177-.816 1.783-.459.426-1.05.804-1.675.871-.674.199-1.382.088-1.91-.106-.527-.194-1.055-.388-1.353-.795l-10.1-10.7c1.67-2.063 2.813-4.32 3.873-6.756a35.12 35.12 0 0 0 1.45-7.498l14.692-1.594c.757-.02 1.597.14 2.159.644.742.421 1.255 1.056 1.406 1.855.201.669.171 1.55-.254 2.286-.244.654-.933 1.294-1.655 1.623l-5.422 2.47 3.336 2.713c.611.373.992.959 1.143 1.758.2.669.088 1.371-.156 2.025-.244.654-.621 1.26-1.211 1.637-.591.378-1.265.576-1.974.465l-4.312-.097 2.491 5.377z" fill="#FFD43B"/><path d="M322.349 308.697l-5.847 53.01c3.341.112 6.701-.528 9.866-1.69l5.265-47.74c-2.906-1.758-5.929-3.028-9.284-3.58zm13.485 6.796l-4.733 42.339c5.411-3.177 9.563-8.123 11.546-14.056 2.164-5.851 2.125-12.381-.205-18.218-1.417-3.792-3.624-7.294-6.608-10.065zm-27.825-5.842l-5.217 47.871c2.906 1.758 5.93 3.027 9.285 3.58l5.847-53.01c-3.341-.112-6.701.528-9.915 1.559zm-13.524 10.768a26.336 26.336 0 0 0-4.113 11.475c-.527 4.209.098 8.292 1.563 12.216 1.285 3.841 3.624 7.294 6.657 10.196l4.733-42.339c-3.58 2.058-6.686 4.984-8.84 8.452z" fill="#9C36B5"/><path d="M46.954 127.615l-4.43 53.176c-3.3-.512-6.475-1.766-9.358-3.497l3.99-47.889c3.19-1.187 6.4-1.872 9.798-1.79zm-14.537 4.169l-3.477 42.483c-4.701-4.128-7.827-9.76-8.635-15.959-1-6.152.29-12.561 3.696-17.863 2.117-3.463 4.956-6.493 8.416-8.661zm28.427-.564l-4.063 48.008c-3.19 1.188-6.4 1.872-9.799 1.791l4.431-53.176c3.3.512 6.475 1.765 9.431 3.377zm11.207 13.096a26.267 26.267 0 0 1 1.835 12.04c-.29 4.234-1.687 8.13-3.877 11.713-1.998 3.535-4.956 6.494-8.49 8.78l3.478-42.483c3.118 2.689 5.605 6.141 7.054 9.95zM147.795 87.008l49.063 21.438c-1.59 2.929-3.843 5.499-6.452 7.64l-44.185-19.308c-.062-3.376.361-6.61 1.574-9.77zm-.897 14.988l39.219 17.068c-5.496 3.067-11.894 4.168-18.057 2.911-6.182-1.061-11.842-4.355-15.742-9.272-2.584-3.111-4.516-6.758-5.42-10.707zm8.967-26.842l44.274 19.415c.062 3.376-.36 6.609-1.574 9.77l-49.062-21.438c1.589-2.928 3.842-5.499 6.362-7.747zm16.194-6.253c4.213-.21 8.328.563 12.058 2.193 3.927 1.648 7.164 4.224 9.837 7.443 2.692 3.022 4.515 6.758 5.508 10.814l-39.218-17.068c3.598-2.05 7.711-3.261 11.815-3.382z" fill="#0CA678"/><path d="M81.85 361.932l44.201 30.215c-2.108 2.581-4.801 4.685-7.763 6.302L78.48 371.238c.569-3.329 1.587-6.427 3.37-9.306zm-3.678 14.558l35.346 24.085c-5.972 1.988-12.463 1.876-18.282-.509-5.876-2.196-10.822-6.487-13.737-12.046-1.959-3.539-3.176-7.482-3.327-11.53zm13.817-24.698l39.875 27.334c-.569 3.328-1.587 6.426-3.369 9.305l-44.202-30.215c2.108-2.58 4.8-4.685 7.696-6.424zm17.076-3.122a26.761 26.761 0 0 1 11.437 4.404c3.551 2.352 6.25 5.486 8.276 9.147 2.081 3.472 3.175 7.482 3.394 11.652l-35.346-24.085c3.918-1.343 8.184-1.765 12.239-1.118z" fill="#6741D9"/><path d="M355.056 47.87l5.846 53.011c-3.341.111-6.701-.528-9.866-1.69l-5.265-47.74c2.906-1.759 5.929-3.028 9.285-3.58zm-13.485 6.797l4.733 42.339c-5.412-3.178-9.564-8.123-11.547-14.057-2.163-5.85-2.124-12.38.205-18.217 1.417-3.793 3.624-7.295 6.609-10.065zm27.824-5.842l5.217 47.87c-2.906 1.759-5.929 3.028-9.285 3.58l-5.846-53.01c3.34-.111 6.701.528 9.914 1.56zm13.525 10.767a26.336 26.336 0 0 1 4.112 11.475c.528 4.21-.098 8.293-1.563 12.216-1.284 3.841-3.624 7.295-6.657 10.196l-4.733-42.339c3.58 2.059 6.687 4.984 8.841 8.453z" fill="#FAB005"/><g opacity=".3" fill="#193154"><path d="M311.076 360.864c12.236-2.547 21.424-13.312 21.424-26.205 0-12.893-9.188-23.657-21.424-26.205a27.3 27.3 0 0 1 5.575-.572c14.912 0 27 11.989 27 26.777 0 14.789-12.088 26.777-27 26.777a27.3 27.3 0 0 1-5.575-.572zM41 180.232c12.236-2.548 21.424-13.312 21.424-26.205 0-12.893-9.188-23.658-21.424-26.205 1.8-.375 3.664-.572 5.576-.572 14.911 0 27 11.988 27 26.777 0 14.788-12.089 26.777-27 26.777-1.912 0-3.777-.197-5.576-.572zM167.75 121.982c12.236-2.548 21.424-13.312 21.424-26.205 0-12.893-9.188-23.657-21.424-26.205a27.33 27.33 0 0 1 5.576-.572c14.911 0 27 11.988 27 26.777 0 14.788-12.089 26.777-27 26.777-1.912 0-3.777-.197-5.576-.572zM354.5 100.482c12.236-2.548 21.424-13.312 21.424-26.205 0-12.893-9.188-23.657-21.424-26.205a27.33 27.33 0 0 1 5.576-.572c14.911 0 27 11.988 27 26.777 0 14.788-12.089 26.777-27 26.777-1.912 0-3.777-.197-5.576-.572zM294 190.355c8.454-1.76 14.802-9.197 14.802-18.105 0-8.908-6.348-16.345-14.802-18.105a18.873 18.873 0 0 1 3.852-.395c10.303 0 18.654 8.283 18.654 18.5s-8.351 18.5-18.654 18.5c-1.32 0-2.609-.136-3.852-.395zM215 351.174c9.971-2.076 17.458-10.848 17.458-21.354 0-10.506-7.487-19.278-17.458-21.354a22.292 22.292 0 0 1 4.544-.466c12.151 0 22.001 9.769 22.001 21.82s-9.85 21.82-22.001 21.82c-1.558 0-3.078-.161-4.544-.466zM99 400.982c12.236-2.548 21.424-13.312 21.424-26.205 0-12.893-9.188-23.658-21.424-26.205a27.302 27.302 0 0 1 5.576-.572c14.911 0 27 11.988 27 26.777 0 14.788-12.089 26.777-27 26.777-1.912 0-3.777-.197-5.576-.572z"/></g></g><defs><clipPath id="clip0_1444_11934"><path fill="#fff" d="M0 0h484v456H0z"/></clipPath></defs></svg>